<svg viewBox="0 0 1305 717" xmlns="http://www.w3.org/2000/svg" xml:space="preserve" style="fill-rule:evenodd;clip-rule:evenodd;stroke-linejoin:round;stroke-miterlimit:2"><path style="fill:#eaeaeb;fill-rule:nonzero" d="M813.114 418.516h13.87v130.688h-13.87zM813.114 332.766h13.87v53.759h-13.87z"/><path style="fill:#e2e2e2;fill-rule:nonzero" d="M822.214 417.346h4.77v114.158h-4.77zM822.214 332.766h4.77v53.759h-4.77z"/><path style="fill:#eaeaeb;fill-rule:nonzero" d="M451.354 418.516h13.87v130.688h-13.87z"/><path style="fill:#e2e2e2;fill-rule:nonzero" d="M460.453 417.346h4.771v114.158h-4.771z"/><path d="M246.454 492.754s-18.351 6.3-22.849-9.53c-4.498-15.839-14.213-11.88-16.372-20.15-.922-3.54-1.287-9.08-1.401-14.26-.157-7.12 2.992-13.77 8.273-18.54 1.454-1.32 2.551-2.737 2.663-4.086.36-4.318-9.715-8.456-8.816-15.293.9-6.837 6.657-6.477 7.197-10.795s1.619-6.477-3.418-9.895c-5.038-3.419-10.795-5.038-2.159-14.214 8.636-9.175 51.815-13.493 63.689-.719 11.875 12.774-4.677 20.33 11.335 30.585 0 0 14.933 3.239 23.569 2.699 7.465-.467 6.864 17.753-6.567 26.888-6.662 4.53-10.381 12.7-8.735 20.59.143.68.324 1.351.549 2 2.698 7.731-9.176 3.06-12.774 17.45-3.598 14.39-34.184 17.27-34.184 17.27z" style="fill:#eeefef;fill-rule:nonzero"/><path d="m254.723 427.72-4.588 141.684h17.812l-8.906-141.684h-4.318z" style="fill:#bdbdbd;fill-rule:nonzero"/><path d="m253.849 500.254-13.928-17.89a21.817 21.817 0 0 1-4.436-10.729l-.76-6.161 2.369-.3 3.461 10.82c.097.79.811 1.35 1.596 1.25a1.435 1.435 0 0 0 1.247-1.599l.338-18.75 2.453-.63 3.456 28.029 8.021 6.99-3.817 8.97zM267.26 428.844l-2.462 19.83c0 1.96-.803 3.89-2.345 5.091a5.4 5.4 0 0 1-3.412 1.169v7.01s10.255-3.23 11.694-8.45c1.44-5.22 0-24.65 0-24.65h-3.475z" style="fill:#bdbdbd;fill-rule:nonzero"/><path d="M1024.6 492.754s-18.35 6.3-22.85-9.53c-4.5-15.839-14.21-11.88-16.37-20.15-.92-3.54-1.29-9.08-1.4-14.26-.16-7.12 2.99-13.77 8.27-18.54 1.46-1.32 2.55-2.737 2.66-4.086.36-4.318-9.71-8.456-8.81-15.293.9-6.837 6.66-6.477 7.2-10.795s1.61-6.477-3.42-9.895c-5.04-3.419-10.8-5.038-2.16-14.214 8.63-9.175 51.81-13.493 63.69-.719 11.87 12.774-4.68 20.33 11.33 30.585 0 0 14.94 3.239 23.57 2.699 7.47-.467 6.87 17.753-6.57 26.888-6.66 4.53-10.38 12.7-8.73 20.59.14.68.32 1.351.55 2 2.7 7.731-9.18 3.06-12.78 17.45-3.59 14.39-34.18 17.27-34.18 17.27z" style="fill:#eeefef;fill-rule:nonzero"/><path d="m1032.87 427.72-4.59 141.684h17.81l-8.9-141.684h-4.32z" style="fill:#bdbdbd;fill-rule:nonzero"/><path d="m1032 500.254-13.93-17.89a21.814 21.814 0 0 1-4.44-10.729l-.76-6.161 2.37-.3 3.46 10.82a1.431 1.431 0 1 0 2.84-.349l.34-18.75 2.46-.63 3.45 28.029 8.02 6.99-3.81 8.97zM1045.41 428.844l-2.47 19.83c0 1.96-.8 3.89-2.34 5.091a5.385 5.385 0 0 1-3.41 1.169v7.01s10.25-3.23 11.69-8.45c1.44-5.22 0-24.65 0-24.65h-3.47z" style="fill:#bdbdbd;fill-rule:nonzero"/><path d="M1304.58 716.244 0 693.464s114.934-146.58 536.323-172.34c8.133-.497 121.841-3.82 126.931-3.82 500.5 0 641.33 198.94 641.33 198.94z" style="fill:url(#a)"/><path style="fill:#f4bb25;fill-rule:nonzero" d="M428.386 260.623h422.098v72.143H428.386z"/><path d="m447.171 260.623-18.785 39.704v-24.946l6.992-14.758h11.793zM440.182 332.767h-11.8l34.135-72.147h11.8l-34.135 72.147zM468.543 332.767h-11.799l34.134-72.147h11.8l-34.135 72.147zM496.905 332.767h-11.8l34.135-72.147h11.8l-34.135 72.147zM525.266 332.767h-11.799l34.134-72.147h11.8l-34.135 72.147zM553.628 332.767h-11.8l34.135-72.147h11.8l-34.135 72.147zM581.989 332.767H570.19l34.134-72.147h11.8l-34.135 72.147zM610.351 332.767h-11.8l34.135-72.147h11.8l-34.135 72.147zM638.712 332.767h-11.8l34.132-72.147h11.8l-34.132 72.147zM667.074 332.767h-11.8l34.13-72.147h11.8l-34.13 72.147zM695.434 332.767h-11.8l34.14-72.147h11.8l-34.14 72.147zM723.794 332.767h-11.8l34.14-72.147h11.8l-34.14 72.147zM752.154 332.767h-11.8l34.14-72.147h11.8l-34.14 72.147zM780.524 332.767h-11.8l34.13-72.147h11.8l-34.13 72.147zM808.884 332.767h-11.8l34.13-72.147h11.8l-34.13 72.147zM850.484 304.783l-13.24 27.983h-11.81l25.05-52.914v24.931z" style="fill:#2b2a27;fill-rule:nonzero"/><path style="fill:#f4bb25;fill-rule:nonzero" d="M428.386 386.525h422.098v33.686H428.386z"/><path d="M438.072 386.525 428.386 407v-20.475h9.686zM465.224 386.525l-15.947 33.686h-11.792l15.933-33.686h11.806zM493.58 386.525l-15.933 33.686H465.84l15.933-33.686h11.807zM521.935 386.525l-15.933 33.686H494.21l15.933-33.686h11.792zM550.305 386.525l-15.947 33.686h-11.792l15.933-33.686h11.806zM578.661 386.525l-15.933 33.686h-11.807l15.948-33.686h11.792zM607.031 386.525l-15.948 33.686h-11.792l15.933-33.686h11.807zM635.387 386.525l-15.934 33.686h-11.806l15.947-33.686h11.793zM663.744 386.525l-15.935 33.686h-11.792l15.933-33.686h11.794zM692.113 386.525l-15.929 33.686h-11.81l15.93-33.686h11.809zM720.464 386.525l-15.93 33.686h-11.811l15.951-33.686h11.79zM748.834 386.525l-15.94 33.686h-11.8l15.94-33.686h11.8zM777.194 386.525l-15.93 33.686h-11.81l15.95-33.686h11.79zM805.564 386.525l-15.95 33.686h-11.79l15.93-33.686h11.81zM833.914 386.525l-15.93 33.686h-11.8l15.93-33.686h11.8zM850.484 386.525v24.932l-4.14 8.754h-11.81l15.95-33.686z" style="fill:#2b2a27;fill-rule:nonzero"/><path style="fill:#eaeaeb;fill-rule:nonzero" d="M451.354 332.766h13.87v53.759h-13.87z"/><path style="fill:#eaeaeb;fill-rule:nonzero" d="M451.354 332.766h13.87v53.759h-13.87z"/><path style="fill:#e2e2e2;fill-rule:nonzero" d="M460.453 332.766h4.771v53.759h-4.771z"/><path d="M390.548 118.734H356.68v-2.395c0-20.213-16.387-36.6-36.601-36.6s-36.6 16.387-36.6 36.6v2.395h-10.611c-14.73 0-26.672 10.413-26.672 23.259s11.942 23.26 26.672 23.26h117.68c14.732 0 26.674-10.414 26.674-23.26 0-12.846-11.942-23.259-26.674-23.259zM966.544 24.475h-21.26v-1.503c0-12.687-10.29-22.972-22.97-22.972-12.69 0-22.98 10.285-22.98 22.972v1.503h-6.66c-9.24 0-16.74 6.536-16.74 14.599 0 8.062 7.5 14.599 16.74 14.599h73.87c9.24 0 16.74-6.537 16.74-14.599 0-8.063-7.5-14.599-16.74-14.599z" style="fill:#eeefef;fill-rule:nonzero"/><text x="498.331" y="152.379" style="font-family:'Gotham-Black','Gotham';font-weight:900;font-size:121.812px">404</text><defs><linearGradient id="a" x1="0" y1="0" x2="1" y2="0" gradientUnits="userSpaceOnUse" gradientTransform="rotate(-90 684.269 31.975) scale(198.945)"><stop offset="0" style="stop-color:#fff;stop-opacity:0"/><stop offset="1" style="stop-color:#bfbebe;stop-opacity:1"/></linearGradient></defs></svg>