<svg viewBox="0 0 12 6" xmlns="http://www.w3.org/2000/svg" xml:space="preserve" style="fill-rule:evenodd;clip-rule:evenodd;stroke-linejoin:round;stroke-miterlimit:2"><path d="M11.268 5.946a.15.15 0 0 1-.15-.15 1.813 1.813 0 0 0-1.293-1.738.151.151 0 0 1-.026-.278 1.073 1.073 0 0 0 .256-1.726 1.07 1.07 0 0 0-.752-.307l-.026.001a1.077 1.077 0 0 0-.471 2.032.152.152 0 0 1 .081.148.151.151 0 0 1-.107.13c-.24.072-.46.192-.647.35a2.788 2.788 0 0 1 .311.82.6.6 0 1 1-1.163-.056l.019-.058c.096-.282.25-.538.447-.752a2.492 2.492 0 0 0-1.321-.953.152.152 0 0 1-.106-.13.15.15 0 0 1 .08-.147A1.497 1.497 0 0 0 6.762.733 1.486 1.486 0 0 0 5.709.3l-.021.001a1.508 1.508 0 0 0-1.479 1.491 1.497 1.497 0 0 0 .809 1.34.15.15 0 0 1 .08.147.152.152 0 0 1-.106.13 2.492 2.492 0 0 0-1.321.953 2.121 2.121 0 0 1 .466.81.597.597 0 0 1-.574.774.6.6 0 0 1-.589-.718 2.908 2.908 0 0 1 .311-.82 1.807 1.807 0 0 0-.647-.35.151.151 0 0 1-.107-.13.152.152 0 0 1 .081-.148c.358-.186.58-.552.58-.955 0-.293-.115-.567-.324-.771a1.07 1.07 0 0 0-.752-.307l-.027.001a1.076 1.076 0 0 0-.47 2.032.151.151 0 0 1-.026.278A1.814 1.814 0 0 0 .3 5.796a.15.15 0 1 1-.3 0 2.117 2.117 0 0 1 1.225-1.919 1.377 1.377 0 0 1 .857-2.43h.033c.363 0 .703.138.963.392a1.376 1.376 0 0 1-.073 2.038c.16.074.309.167.445.277a2.79 2.79 0 0 1 1.161-.926 1.791 1.791 0 0 1-.702-1.438A1.809 1.809 0 0 1 5.684 0h.025c.477 0 .925.184 1.264.519.346.341.537.796.537 1.282 0 .566-.263 1.089-.703 1.427a2.79 2.79 0 0 1 1.161.926c.136-.11.285-.203.445-.277a1.377 1.377 0 0 1 .857-2.43h.033c.362 0 .702.138.962.392.268.261.415.611.415.986 0 .411-.181.793-.488 1.051a2.12 2.12 0 0 1 1.226 1.92.15.15 0 0 1-.15.15zM3.506 4.63a2.548 2.548 0 0 0-.237.659.296.296 0 0 0 .06.246.3.3 0 0 0 .521-.275l-.016-.049a1.802 1.802 0 0 0-.328-.581zm4.406 0c-.143.17-.255.366-.328.581l-.016.049a.3.3 0 1 0 .581.029 2.548 2.548 0 0 0-.237-.659z" style="fill:url(#a)"/><defs><linearGradient id="a" x1="0" y1="0" x2="1" y2="0" gradientUnits="userSpaceOnUse" gradientTransform="scale(12.70787) rotate(27.274 -.008 .012)"><stop offset="0" style="stop-color:#ff914d;stop-opacity:1"/><stop offset="1" style="stop-color:#fd4117;stop-opacity:1"/></linearGradient></defs></svg>