<svg viewBox="0 0 409 211" xmlns="http://www.w3.org/2000/svg" xml:space="preserve" style="fill-rule:evenodd;clip-rule:evenodd;stroke-linejoin:round;stroke-miterlimit:2"><path d="M819.657 505.108a3.508 3.508 0 0 1-3.508-3.507c0-8.181-1.325-16.22-3.937-23.893-7.697-22.639-25.965-40.255-48.866-47.126a3.51 3.51 0 0 1-2.485-3.03 3.512 3.512 0 0 1 1.873-3.442c14.964-7.788 24.26-23.086 24.26-39.925 0-12.22-4.815-23.654-13.56-32.194-8.476-8.279-19.584-12.802-31.42-12.802-.367 0-.732.004-1.1.013-23.813.562-43.086 19.648-43.875 43.451-.581 17.489 8.706 33.375 24.233 41.457a3.507 3.507 0 0 1-.611 6.472 74.065 74.065 0 0 0-27.998 15.669 107.472 107.472 0 0 1 9.523 20.574 107.726 107.726 0 0 1 3.497 12.828c1.287 6.225-.288 12.634-4.32 17.584a21.262 21.262 0 0 1-16.552 7.871c-6.843 0-13.1-3.161-17.166-8.671-4.035-5.47-5.203-12.318-3.203-18.79a81.114 81.114 0 0 1 19.224-32.475c-12.887-19.079-32.11-33.466-54.622-40.22a3.508 3.508 0 0 1-.611-6.471c20.521-10.682 33.269-31.663 33.269-54.755 0-16.644-6.526-32.248-18.376-43.937-11.64-11.482-27.006-17.774-43.327-17.774-.288 0-.574.002-.862.006-33.357.455-60.649 27.975-60.839 61.347-.132 23.244 12.616 44.362 33.269 55.113a3.507 3.507 0 0 1-.611 6.471c-22.515 6.755-41.736 21.139-54.622 40.22a81.118 81.118 0 0 1 19.225 32.477c1.998 6.47.831 13.318-3.205 18.788-4.065 5.51-10.323 8.671-17.165 8.671a21.262 21.262 0 0 1-16.552-7.871c-4.033-4.95-5.607-11.359-4.32-17.584a107.676 107.676 0 0 1 13.02-33.402 74.052 74.052 0 0 0-27.998-15.669 3.507 3.507 0 0 1-.611-6.471c14.963-7.789 24.258-23.088 24.258-39.926 0-12.22-4.815-23.654-13.56-32.195-8.476-8.278-19.577-12.801-31.419-12.801-.367 0-.733.004-1.101.013-23.812.562-43.085 19.648-43.875 43.451-.58 17.489 8.705 33.374 24.234 41.458a3.51 3.51 0 0 1 1.873 3.441 3.51 3.51 0 0 1-2.485 3.03c-22.901 6.871-41.168 24.487-48.864 47.124a73.98 73.98 0 0 0-3.939 23.895 3.507 3.507 0 1 1-7.015 0 80.949 80.949 0 0 1 4.313-26.155c7.615-22.395 24.679-40.301 46.4-49.092-14.009-10.053-22.114-26.287-21.528-43.933.913-27.518 23.193-49.583 50.72-50.233.42-.009.841-.014 1.26-.014 13.693 0 26.525 5.224 36.328 14.798 10.107 9.871 15.674 23.088 15.674 37.213 0 16.907-8.106 32.469-21.567 42.166a81.152 81.152 0 0 1 22.741 13.936c12.334-17.843 29.89-31.748 50.441-39.567-19.014-12.776-30.466-34.128-30.334-57.392.211-37.166 30.608-67.815 67.758-68.322.317-.004.635-.006.952-.006 18.209 0 35.293 7.004 48.26 19.794 13.197 13.019 20.465 30.396 20.465 48.932 0 23.096-11.451 44.297-30.335 56.994 20.55 7.818 38.107 21.723 50.441 39.567a81.156 81.156 0 0 1 22.733-13.933c-14.01-10.053-22.116-26.287-21.531-43.933.914-27.518 23.194-49.583 50.722-50.233.419-.009.84-.014 1.258-.014 13.672 0 26.527 5.224 36.33 14.798 10.107 9.872 15.674 23.088 15.674 37.213 0 16.907-8.105 32.469-21.568 42.166 21.725 8.789 38.795 26.697 46.41 49.097a80.928 80.928 0 0 1 4.313 26.153 3.508 3.508 0 0 1-3.508 3.507zm-132.151-53.787a74.032 74.032 0 0 0-16.361 28.394c-1.335 4.323-.552 8.899 2.146 12.556 2.729 3.7 6.929 5.822 11.52 5.822 4.327 0 8.377-1.927 11.113-5.286 2.694-3.307 3.747-7.584 2.888-11.733a100.57 100.57 0 0 0-11.306-29.753zm-175.012 0a100.571 100.571 0 0 0-11.306 29.754c-.859 4.148.194 8.425 2.888 11.732a14.277 14.277 0 0 0 11.113 5.286c4.591 0 8.79-2.122 11.52-5.822 2.698-3.657 3.481-8.233 2.145-12.554a74.034 74.034 0 0 0-16.36-28.396z" style="fill:url(#a)" transform="translate(-344.707 -251.554) scale(.91474)"/><defs><linearGradient id="a" x1="0" y1="0" x2="1" y2="0" gradientUnits="userSpaceOnUse" gradientTransform="scale(502.156) rotate(27.274 -.753 1.82)"><stop offset="0" style="stop-color:#ff914d;stop-opacity:1"/><stop offset="1" style="stop-color:#fd4117;stop-opacity:1"/></linearGradient></defs></svg>